<svg width="651" height="648" viewBox="0 0 651 648" fill="none" xmlns="http://www.w3.org/2000/svg">
<path d="M649.274 415.106L325.399 602.079L1.52344 415.106L1.52355 459.223L325.399 646.196L649.274 459.223L649.274 415.106Z" fill="#7BBBF5"/>
<path d="M649.274 415.106L325.399 228.133L1.52344 415.106M649.274 415.106L325.399 602.079M649.274 415.106L649.274 459.223L325.399 646.196L1.52355 459.223L1.52344 415.106M325.399 602.079L1.52344 415.106M325.399 602.079V646.104" stroke="#50A4F2" stroke-width="2"/>
<g opacity="0.3" filter="url(#filter0_f)">
<rect width="305.341" height="18.0781" transform="matrix(0.866044 0.499967 -0.866044 0.499967 313.582 268.025)" fill="#3A99F1"/>
<rect y="0.999935" width="303.341" height="16.0781" transform="matrix(0.866044 0.499967 -0.866044 0.499967 314.448 268.525)" stroke="#50A4F2" stroke-width="2"/>
</g>
<g opacity="0.2" filter="url(#filter1_f)">
<rect width="207.189" height="69.404" transform="matrix(0.866044 0.499967 -0.866044 0.499967 123.646 354.262)" fill="#3A99F1"/>
<rect y="0.999935" width="205.189" height="67.404" transform="matrix(0.866044 0.499967 -0.866044 0.499967 124.512 354.762)" stroke="#50A4F2" stroke-width="2"/>
</g>
<path d="M252.176 214.57L387.975 199.735L377.648 186.258L252.176 214.57Z" fill="#7BBBF5"/>
<path d="M430.73 220.886L560.057 367.872L445.725 217.765L430.73 220.886Z" fill="#7BBBF5"/>
<path d="M252.176 214.57L387.975 199.735L377.648 186.258L252.176 214.57Z" stroke="#50A4F2" stroke-width="2"/>
<path d="M430.73 220.886L560.057 367.872L445.725 217.765L430.73 220.886Z" stroke="#50A4F2" stroke-width="2"/>
<path d="M548.064 196.303L552.886 194.938V156.732L548.064 159.461V196.303Z" fill="#F8FAF9" stroke="#50A4F2" stroke-width="2"/>
<path d="M547.907 159.308L551.965 156.595L275.088 16.8717L270.396 19.9688L547.907 159.308Z" fill="#F8FAF9" stroke="#50A4F2" stroke-width="2"/>
<path d="M478.768 196.645V177.721L304.273 89.7373L327.13 120.827L478.768 196.645Z" fill="#7BBBF5" stroke="#50A4F2" stroke-width="2"/>
<path d="M384.5 113.662V94.6751L296.658 49.2188V69.309L384.5 113.662Z" fill="#7BBBF5" stroke="#50A4F2" stroke-width="2"/>
<path d="M552.731 156.851L547.954 159.596V168.073V196.487L552.731 195.493V173.682V156.851Z" fill="#F8FAF9"/>
<path d="M274.915 17.1636L270.137 19.9088L273.688 21.6942L535.327 153.247L547.954 159.596L552.731 156.851L527.659 144.244L283.196 21.3275L274.915 17.1636Z" fill="#F8FAF9"/>
<path d="M560.056 386.013L578.019 375.488V183.445L578.018 183.443L566.696 190.078L560.056 193.968L560.056 367.871L560.056 386.013Z" fill="#F8FAF9"/>
<path d="M560.056 367.871L560.056 193.968L552.731 195.493L547.954 196.487L445.724 217.764L560.056 367.871Z" fill="#F8FAF9"/>
<path d="M252.174 22.5237L252.175 214.569L377.647 186.256L327.514 120.837L303.285 89.2201L270.137 45.9641L252.174 22.5237Z" fill="#F8FAF9"/>
<path d="M270.137 11.9952L252.174 22.5237L270.137 45.9641V21.8311V19.9088L274.915 17.1636L283.196 21.3275L527.659 144.244L552.731 156.851V173.682V195.493L560.056 193.968L566.696 190.078L578.018 183.443L426.535 5.58594L270.137 11.9952Z" fill="#F8FAF9"/>
<path d="M252.175 214.569L560.056 386.013L560.056 367.871L430.729 220.885L410.002 197.327L387.975 199.733L252.175 214.569Z" fill="#F8FAF9"/>
<path fill-rule="evenodd" clip-rule="evenodd" d="M410.002 197.327L430.729 220.885L445.724 217.764L547.954 196.487V168.073V159.596L535.327 153.247L273.688 21.6942L270.137 19.9088V21.8311V45.9641L303.285 89.2201L390.978 133.312L478.671 177.405V196.839L390.978 152.747L327.514 120.837L377.647 186.256L387.975 199.733L410.002 197.327ZM297.078 50.2036L384.771 94.2958V113.73L297.078 69.6378V50.2036Z" fill="#F8FAF9"/>
<path d="M560.056 386.013L578.019 375.488V183.445L578.018 183.443M560.056 386.013L252.175 214.569M560.056 386.013L560.056 367.871M560.056 193.968L560.056 367.871M560.056 193.968L552.731 195.493M560.056 193.968L566.696 190.078L578.018 183.443M578.019 183.443L578.018 183.443M252.175 214.569L252.174 22.5237M252.175 214.569L387.975 199.733M252.175 214.569L377.647 186.256M252.174 22.5237L270.137 11.9952L426.535 5.58594L578.018 183.443M252.174 22.5237L270.137 45.9641M560.056 367.871L430.729 220.885M560.056 367.871L445.724 217.764M430.729 220.885L410.002 197.327L387.975 199.733M430.729 220.885L445.724 217.764M387.975 199.733L377.647 186.256M445.724 217.764L547.954 196.487M377.647 186.256L327.514 120.837M547.954 196.487L552.731 195.493M547.954 196.487V168.073V159.596M547.954 159.596L552.731 156.851M547.954 159.596L535.327 153.247L273.688 21.6942L270.137 19.9088M270.137 19.9088L274.915 17.1636L283.196 21.3275L527.659 144.244L552.731 156.851M270.137 19.9088V21.8311V45.9641M552.731 156.851V173.682V195.493M270.137 45.9641L327.514 120.837M270.137 45.9641L303.285 89.2201M303.285 89.2201L390.978 133.312L478.671 177.405V196.839L390.978 152.747L327.514 120.837M303.285 89.2201L327.514 120.837M297.078 50.2036L384.771 94.2958V113.73L297.078 69.6378V50.2036Z" stroke="#50A4F2" stroke-width="2"/>
<path d="M561.1 384.176L576.979 374.791V185.392L561.1 194.607L561.1 384.176Z" fill="#7BBBF5" stroke="#50A4F2" stroke-width="2"/>
<path d="M370.525 154.295L249.182 84.0767L202.315 57.4428L199.266 55.8172C162.356 53.7034 147.709 83.662 144.999 98.9056C145.541 126.547 146.3 193.055 144.999 237.955C143.698 282.854 119.119 309.489 106.992 317.193L58.8223 344.225V353.778L233.209 450.727C244.929 445.51 273.33 431.256 293.167 415.971C313.004 400.687 319.173 371.654 319.777 359.048V237.955C319.777 231.172 321.536 204.165 323.169 201.275C331.61 172.334 349.297 165.433 357.085 165.601H364.371L370.525 154.295Z" fill="#F8FAF9" stroke="#50A4F2" stroke-width="2"/>
<path d="M370.525 154.295L249.182 84.0767L202.315 57.4428L199.266 55.8172C162.356 53.7034 147.709 83.662 144.999 98.9056C145.541 126.547 146.3 193.055 144.999 237.955C143.698 282.854 119.119 309.489 106.992 317.193L58.8223 344.225V353.778L233.209 450.727C244.929 445.51 273.33 431.256 293.167 415.971C313.004 400.687 319.173 371.654 319.777 359.048V237.955C319.777 231.172 321.536 204.165 323.169 201.275C331.61 172.334 349.297 165.433 357.085 165.601H364.371L370.525 154.295Z" stroke="#50A4F2" stroke-width="2"/>
<path d="M319.845 248.388C319.845 198.284 326.705 168.745 364.47 165.005L369.937 154.143C358.775 152.934 333.231 157.129 320.349 183.576C310.093 207.554 310.092 228.794 310.092 248.382V361.352C310.092 385.401 296.839 407.492 275.621 418.812L233.043 441.528V450.307H232.605L233.218 450.717L275.621 427.858L282.998 423.754C305.742 411.099 319.845 387.114 319.845 361.085V248.388Z" fill="#7BBBF5" stroke="#50A4F2" stroke-width="2"/>
<path d="M233.041 441.529L58.3828 344.27" stroke="#50A4F2" stroke-width="2"/>
<rect x="0.866025" y="1.5" width="140.299" height="7.38754" transform="matrix(0.866025 0.5 0 1 163.448 120.306)" fill="#7BBBF5" stroke="#50A4F2" stroke-width="2"/>
<rect x="0.866025" y="1.5" width="93.7827" height="7.38754" transform="matrix(0.866025 0.5 0 1 163.448 143.248)" fill="#7BBBF5" stroke="#50A4F2" stroke-width="2"/>
<rect x="0.866025" y="1.5" width="85.039" height="7.38754" transform="matrix(0.866025 0.5 0 1 163.448 166.189)" fill="#7BBBF5" stroke="#50A4F2" stroke-width="2"/>
<rect x="0.866025" y="1.5" width="114.768" height="7.38754" transform="matrix(0.866025 0.5 0 1 163.448 189.129)" fill="#7BBBF5" stroke="#50A4F2" stroke-width="2"/>
<rect x="0.866025" y="1.5" width="67.5516" height="7.38754" transform="matrix(0.866025 0.5 0 1 163.448 212.068)" fill="#7BBBF5" stroke="#50A4F2" stroke-width="2"/>
<rect x="0.866025" y="1.5" width="48.3155" height="7.38754" transform="matrix(0.866025 0.5 0 1 163.448 235.01)" fill="#7BBBF5" stroke="#50A4F2" stroke-width="2"/>
<rect x="0.866025" y="1.5" width="96.5807" height="7.38754" transform="matrix(0.866025 0.5 0 1 163.448 257.951)" fill="#7BBBF5" stroke="#50A4F2" stroke-width="2"/>
<path opacity="0.6" d="M548.148 196.347L552.975 194.712V157.478L548.064 159.827L548.148 196.347Z" fill="#7BBBF5" stroke="#50A4F2" stroke-width="2"/>
<defs>
<filter id="filter0_f" x="270.089" y="240.188" width="335.769" height="217.373" filterUnits="userSpaceOnUse" color-interpolation-filters="sRGB">
<feFlood flood-opacity="0" result="BackgroundImageFix"/>
<feBlend mode="normal" in="SourceGraphic" in2="BackgroundImageFix" result="shape"/>
<feGaussianBlur stdDeviation="13.9185" result="effect1_foregroundBlur"/>
</filter>
<filter id="filter1_f" x="35.7021" y="326.425" width="295.215" height="193.961" filterUnits="userSpaceOnUse" color-interpolation-filters="sRGB">
<feFlood flood-opacity="0" result="BackgroundImageFix"/>
<feBlend mode="normal" in="SourceGraphic" in2="BackgroundImageFix" result="shape"/>
<feGaussianBlur stdDeviation="13.9185" result="effect1_foregroundBlur"/>
</filter>
</defs>
</svg>
